<svg width="351" height="137" viewBox="0 0 351 137" fill="none" xmlns="http://www.w3.org/2000/svg">
<rect width="137" height="137" fill="#BA6A52"/>
<path d="M13.1648 124.295C12.2538 124.295 11.4721 123.969 10.8196 123.317C10.1671 122.664 9.84091 121.883 9.84091 120.972C9.84091 120.061 10.1671 119.279 10.8196 118.626C11.4721 117.974 12.2538 117.648 13.1648 117.648C14.0758 117.648 14.8575 117.974 15.5099 118.626C16.1624 119.279 16.4886 120.061 16.4886 120.972C16.4886 121.575 16.3348 122.129 16.027 122.634C15.7315 123.138 15.3314 123.545 14.8267 123.852C14.3343 124.148 13.7803 124.295 13.1648 124.295ZM36.9396 95.6364V99.3295H21.6499V95.6364H36.9396ZM26.2294 124V91.7216C26.2294 90.0966 26.611 88.7424 27.3743 87.6591C28.1375 86.5758 29.1286 85.7633 30.3473 85.2216C31.5661 84.6799 32.8525 84.4091 34.2067 84.4091C35.2777 84.4091 36.1518 84.4953 36.8288 84.6676C37.5059 84.84 38.0107 85 38.343 85.1477L37.0874 88.9148C36.8658 88.8409 36.558 88.7486 36.1641 88.6378C35.7824 88.527 35.2777 88.4716 34.6499 88.4716C33.2095 88.4716 32.1693 88.8348 31.5291 89.5611C30.9013 90.2874 30.5874 91.3523 30.5874 92.7557V124H26.2294Z" fill="white"/>
<path d="M174.268 65.548H175.62V77.716H174.268L173.28 73.816C173.176 73.4 173.055 73.1053 172.916 72.932C172.812 72.724 172.587 72.6027 172.24 72.568C171.893 72.4987 171.304 72.464 170.472 72.464H164.024V84.788C164.024 86.0013 164.076 86.7293 164.18 86.972C164.284 87.18 164.613 87.3013 165.168 87.336L169.068 87.648V89H155.496V87.648L158.356 87.336C158.911 87.2667 159.24 87.128 159.344 86.92C159.448 86.712 159.5 86.0013 159.5 84.788V57.852C159.5 56.6387 159.448 55.928 159.344 55.72C159.24 55.512 158.911 55.3733 158.356 55.304L155.496 55.044V53.64H179.26V62.116H177.908L176.4 56.656C176.261 56.0667 176.053 55.7027 175.776 55.564C175.533 55.3907 174.805 55.304 173.592 55.304H164.024V70.8H170.472C171.304 70.8 171.893 70.7827 172.24 70.748C172.587 70.6787 172.812 70.5573 172.916 70.384C173.055 70.176 173.176 69.864 173.28 69.448L174.268 65.548ZM183.73 55.044V53.64H198.186C201.584 53.64 204.184 54.4547 205.986 56.084C207.824 57.6787 208.742 59.8107 208.742 62.48V64.092C208.742 66.2067 208.153 68.0093 206.974 69.5C205.83 70.956 204.184 71.9613 202.034 72.516L208.69 84.788C209.141 85.62 209.47 86.2093 209.678 86.556C209.886 86.868 210.077 87.076 210.25 87.18C210.458 87.2493 210.736 87.3013 211.082 87.336L213.422 87.648V89H205.57L197.354 72.984H192.258V84.788C192.258 86.0013 192.31 86.712 192.414 86.92C192.518 87.128 192.848 87.2667 193.402 87.336L196.262 87.648V89H183.73V87.648L186.59 87.336C187.145 87.2667 187.474 87.128 187.578 86.92C187.682 86.712 187.734 86.0013 187.734 84.788V57.852C187.734 56.6387 187.682 55.928 187.578 55.72C187.474 55.512 187.145 55.3733 186.59 55.304L183.73 55.044ZM198.186 55.304H192.258V71.32H198.186C199.989 71.32 201.393 70.748 202.398 69.604C203.438 68.4253 203.958 66.6573 203.958 64.3V62.272C203.958 59.9147 203.438 58.164 202.398 57.02C201.393 55.876 199.989 55.304 198.186 55.304ZM236.731 55.044V53.64H246.663V55.044L243.803 55.304C243.248 55.3733 242.919 55.512 242.815 55.72C242.711 55.928 242.659 56.6387 242.659 57.852V76.988C242.659 80.94 241.74 84.0253 239.903 86.244C238.1 88.428 235.327 89.52 231.583 89.52C227.492 89.52 224.355 88.324 222.171 85.932C220.021 83.54 218.947 80.2467 218.947 76.052V57.852C218.947 56.6387 218.895 55.928 218.791 55.72C218.687 55.512 218.357 55.3733 217.803 55.304L214.943 55.044V53.64H227.475V55.044L224.615 55.304C224.06 55.3733 223.731 55.512 223.627 55.72C223.523 55.928 223.471 56.6387 223.471 57.852V76.832C223.471 80.5413 224.164 83.2973 225.551 85.1C226.972 86.9027 229.121 87.804 231.999 87.804C234.911 87.804 237.095 86.8853 238.551 85.048C240.007 83.2107 240.735 80.5413 240.735 77.04V57.852C240.735 56.6387 240.683 55.928 240.579 55.72C240.475 55.512 240.145 55.3733 239.591 55.304L236.731 55.044ZM272.39 55.044V53.64H282.322V55.044L279.462 55.304C278.907 55.3733 278.578 55.5293 278.474 55.772C278.37 55.98 278.318 56.6733 278.318 57.852V89H275.77L256.842 57.072V84.788C256.842 85.9667 256.894 86.6773 256.998 86.92C257.102 87.128 257.431 87.2667 257.986 87.336L260.846 87.648V89H250.914V87.648L253.774 87.336C254.329 87.2667 254.658 87.128 254.762 86.92C254.866 86.6773 254.918 85.9667 254.918 84.788V57.852C254.918 56.6733 254.866 55.98 254.762 55.772C254.658 55.5293 254.329 55.3733 253.774 55.304L250.914 55.044V53.64H259.91L276.394 81.512V57.852C276.394 56.6733 276.342 55.98 276.238 55.772C276.134 55.5293 275.805 55.3733 275.25 55.304L272.39 55.044ZM308.343 55.044V53.64H318.275V55.044L315.415 55.304C314.86 55.3733 314.531 55.5293 314.427 55.772C314.323 55.98 314.271 56.6733 314.271 57.852V89H311.723L292.795 57.072V84.788C292.795 85.9667 292.847 86.6773 292.951 86.92C293.055 87.128 293.384 87.2667 293.939 87.336L296.799 87.648V89H286.867V87.648L289.727 87.336C290.282 87.2667 290.611 87.128 290.715 86.92C290.819 86.6773 290.871 85.9667 290.871 84.788V57.852C290.871 56.6733 290.819 55.98 290.715 55.772C290.611 55.5293 290.282 55.3733 289.727 55.304L286.867 55.044V53.64H295.863L312.347 81.512V57.852C312.347 56.6733 312.295 55.98 312.191 55.772C312.087 55.5293 311.758 55.3733 311.203 55.304L308.343 55.044ZM346.376 80.524H347.728V89H322.82V87.648L325.68 87.336C326.235 87.2667 326.564 87.128 326.668 86.92C326.772 86.712 326.824 86.0013 326.824 84.788V57.852C326.824 56.6387 326.772 55.928 326.668 55.72C326.564 55.512 326.235 55.3733 325.68 55.304L322.82 55.044V53.64H347.052V62.116H345.752L344.244 56.656C344.14 56.24 344.019 55.9453 343.88 55.772C343.776 55.564 343.551 55.4427 343.204 55.408C342.858 55.3387 342.268 55.304 341.436 55.304H331.348V70.332H338.316C339.148 70.332 339.738 70.3147 340.084 70.28C340.431 70.2107 340.656 70.0893 340.76 69.916C340.899 69.708 341.02 69.396 341.124 68.98L342.112 65.08H343.464V77.248H342.112L341.124 73.348C341.02 72.932 340.899 72.6373 340.76 72.464C340.656 72.256 340.431 72.1347 340.084 72.1C339.738 72.0307 339.148 71.996 338.316 71.996H331.348V87.336H342.06C342.892 87.336 343.482 87.3187 343.828 87.284C344.175 87.2147 344.4 87.0933 344.504 86.92C344.643 86.712 344.764 86.4 344.868 85.984L346.376 80.524Z" fill="#BA6A52"/>
</svg>
