<svg width="137" height="137" viewBox="0 0 137 137" fill="none" xmlns="http://www.w3.org/2000/svg">
<rect width="137" height="137" fill="#BA6A52"/>
<path d="M13.1648 124.295C12.2538 124.295 11.4721 123.969 10.8196 123.317C10.1671 122.664 9.84091 121.883 9.84091 120.972C9.84091 120.061 10.1671 119.279 10.8196 118.626C11.4721 117.974 12.2538 117.648 13.1648 117.648C14.0758 117.648 14.8575 117.974 15.5099 118.626C16.1624 119.279 16.4886 120.061 16.4886 120.972C16.4886 121.575 16.3348 122.129 16.027 122.634C15.7315 123.138 15.3314 123.545 14.8267 123.852C14.3343 124.148 13.7803 124.295 13.1648 124.295ZM36.9396 95.6364V99.3295H21.6499V95.6364H36.9396ZM26.2294 124V91.7216C26.2294 90.0966 26.611 88.7424 27.3743 87.6591C28.1375 86.5758 29.1286 85.7633 30.3473 85.2216C31.5661 84.6799 32.8525 84.4091 34.2067 84.4091C35.2777 84.4091 36.1518 84.4953 36.8288 84.6676C37.5059 84.84 38.0107 85 38.343 85.1477L37.0874 88.9148C36.8658 88.8409 36.558 88.7486 36.1641 88.6378C35.7824 88.527 35.2777 88.4716 34.6499 88.4716C33.2095 88.4716 32.1693 88.8348 31.5291 89.5611C30.9013 90.2874 30.5874 91.3523 30.5874 92.7557V124H26.2294Z" fill="white"/>
</svg>
